<?xml version="1.0" encoding="UTF-8"?>
<svg xmlns="http://www.w3.org/2000/svg" xmlns:xlink="http://www.w3.org/1999/xlink" width="30pt" height="30pt" viewBox="0 0 30 30" version="1.1">
<g id="surface1">
<path style=" stroke:none;fill-rule:nonzero;fill:rgb(0%,0%,0%);fill-opacity:1;" d="M 27.855469 15 C 27.855469 17.332031 27.28125 19.484375 26.132812 21.453125 C 24.984375 23.421875 23.421875 24.984375 21.453125 26.132812 C 19.484375 27.28125 17.332031 27.855469 15 27.855469 C 12.667969 27.855469 10.515625 27.28125 8.546875 26.132812 C 6.578125 24.984375 5.015625 23.421875 3.867188 21.453125 C 2.71875 19.484375 2.144531 17.332031 2.144531 15 C 2.144531 12.667969 2.71875 10.515625 3.867188 8.546875 C 5.015625 6.578125 6.578125 5.015625 8.546875 3.867188 C 10.515625 2.71875 12.667969 2.144531 15 2.144531 C 17.332031 2.144531 19.484375 2.71875 21.453125 3.867188 C 23.421875 5.015625 24.984375 6.578125 26.132812 8.546875 C 27.28125 10.515625 27.855469 12.667969 27.855469 15 Z M 27.855469 15 "/>
</g>
</svg>
